<svg xmlns="http://www.w3.org/2000/svg" width="255" height="255" viewBox="0 0 255 255">
    <path d="M201.875 0 L53.125 0 C 23.7893758714199 0, 0 23.7893758714199, 0 53.125 L0 201.875 C 0 231.210621595383, 23.7893758714199 255, 53.125 255 L201.875 255 C 231.221240758896 255, 255 231.210621595383, 255 201.875 L255 53.125 C 255 23.7893758714199, 231.221240758896 0, 201.875 0" fill="black"/>
    <path d="M196.5625 201.875 L164.6875 201.875 L164.6875 85 L196.5625 85 L196.5625 201.875" fill="chartreuse"/>
    <path d="M180.625 71.5274986624718 C 170.361249148846 71.5274986624718, 162.03125 63.1337490677834, 162.03125 52.7849993109703 C 162.03125 42.4362495541573, 170.361249148846 34.0424999594688, 180.625 34.0424999594688 C 190.888750851154 34.0424999594688, 199.21875 42.4362495541573, 199.21875 52.7849993109703 C 199.21875 63.1337490677834, 190.899375081062 71.5274986624718, 180.625 71.5274986624718" fill="chartreuse"/>
    <path d="M143.4376 201.875 L111.5626 201.875 L111.5626 142.332499027252 C 111.5626 106.547498703003, 69.0626 109.256874918938, 69.0626 142.332499027252 L69.0626 201.875 L37.1876 201.875 L37.1876 85 L69.0626 85 L69.0626 103.753128647804 C 83.895099027252 76.2768739461899, 143.4376 74.2474991083145, 143.4376 130.060626864433 L143.4376 201.875" fill="chartreuse"/>
</svg>